<?xml version="1.0" encoding="UTF-8" standalone="no"?>
<!-- Created with Inkscape (http://www.inkscape.org/) -->

<svg
   xmlns:dc="http://purl.org/dc/elements/1.1/"
   xmlns:cc="http://creativecommons.org/ns#"
   xmlns:rdf="http://www.w3.org/1999/02/22-rdf-syntax-ns#"
   xmlns:svg="http://www.w3.org/2000/svg"
   xmlns="http://www.w3.org/2000/svg"
   xmlns:sodipodi="http://sodipodi.sourceforge.net/DTD/sodipodi-0.dtd"
   xmlns:inkscape="http://www.inkscape.org/namespaces/inkscape"
   width="52.034107mm"
   height="31.999147mm"
   viewBox="0 0 52.034107 31.999147"
   version="1.1"
   id="svg4535"
   inkscape:version="0.92.3 (2405546, 2018-03-11)"
   sodipodi:docname="CCCM Graphic.svg">
  <defs
     id="defs4529" />
  <sodipodi:namedview
     id="base"
     pagecolor="#ffffff"
     bordercolor="#666666"
     borderopacity="1.0"
     inkscape:pageopacity="0.0"
     inkscape:pageshadow="2"
     inkscape:zoom="3.959798"
     inkscape:cx="80.634154"
     inkscape:cy="54.041605"
     inkscape:document-units="mm"
     inkscape:current-layer="layer1"
     showgrid="false"
     inkscape:pagecheckerboard="true"
     inkscape:window-width="1920"
     inkscape:window-height="1001"
     inkscape:window-x="-9"
     inkscape:window-y="1491"
     inkscape:window-maximized="1" />
  <metadata
     id="metadata4532">
    <rdf:RDF>
      <cc:Work
         rdf:about="">
        <dc:format>image/svg+xml</dc:format>
        <dc:type
           rdf:resource="http://purl.org/dc/dcmitype/StillImage" />
        <dc:title></dc:title>
      </cc:Work>
    </rdf:RDF>
  </metadata>
  <g
     inkscape:label="Layer 1"
     inkscape:groupmode="layer"
     id="layer1"
     transform="translate(-87.375461,-74.160657)">
    <path
       inkscape:connector-curvature="0"
       d="m 111.59593,74.206256 c -0.0788,0.02355 -0.1434,0.0635 -0.1434,0.0889 0,0.02513 -0.0275,0.07355 -0.0611,0.107156 -0.0995,0.09922 -0.12727,0.759089 -0.0923,2.179108 l 0.0323,1.31736 -0.13785,0.07117 c -0.0757,0.03916 -0.13785,0.09049 -0.13785,0.1143 0,0.02355 -0.022,0.04286 -0.0487,0.04286 -0.0267,0 -0.13388,0.05742 -0.23812,0.127794 -0.10425,0.07038 -0.26088,0.153723 -0.34819,0.185209 -0.0873,0.03175 -0.15875,0.07117 -0.15875,0.08784 0,0.01693 -0.0545,0.04418 -0.12118,0.06085 -0.0667,0.01667 -0.18918,0.06218 -0.27199,0.1016 -0.0923,0.04366 -0.27173,0.07223 -0.46302,0.07355 l -0.31221,0.0027 0.0124,-0.152665 c 0.007,-0.08387 0.0294,-0.163248 0.0497,-0.176477 0.0476,-0.03016 0.18018,-0.667808 0.18018,-0.866246 0,-0.08228 0.0198,-0.149754 0.0442,-0.149754 0.0262,0 0.0442,-0.160602 0.0442,-0.394229 0,-0.216694 -0.0198,-0.4064 -0.0442,-0.421481 -0.0243,-0.01508 -0.0444,-0.0807 -0.0447,-0.14605 -7.9e-4,-0.185743 -0.11588,-0.572034 -0.19341,-0.649822 -0.0389,-0.03863 -0.0706,-0.09075 -0.0706,-0.115623 0,-0.07012 -0.43285,-0.477573 -0.5072,-0.477573 -0.0363,0 -0.0659,-0.0172 -0.0659,-0.0381 0,-0.137318 -0.92287,-0.169068 -1.1774,-0.04048 -0.28787,0.145256 -0.5424,0.344752 -0.5424,0.424921 0,0.01878 -0.0381,0.07461 -0.0847,0.124619 -0.26511,0.284691 -0.30797,1.96506 -0.054,2.127779 0.0214,0.01376 0.0712,0.166687 0.11033,0.339725 0.0992,0.439473 0.0545,0.554566 -0.27411,0.705114 -0.80723,0.369359 -0.9845,0.468048 -1.16363,0.646907 -0.10609,0.106097 -0.21828,0.260879 -0.24923,0.343693 -0.0307,0.08255 -0.072,0.18124 -0.0913,0.218811 -0.14023,0.271198 -0.14473,1.624277 -0.006,1.716352 0.0193,0.0127 0.0704,0.171979 0.11377,0.354012 0.0434,0.181769 0.096,0.352425 0.11694,0.378884 0.0206,0.02672 0.0693,0.264848 0.10795,0.529166 0.0386,0.264584 0.0878,0.5207 0.10954,0.569119 0.0439,0.09869 0.17357,1.414198 0.17357,1.763448 0,0.123825 0.0246,0.250031 0.055,0.280458 0.0746,0.07461 0.081,4.491038 0.007,4.539192 -0.0272,0.01773 -0.0614,0.243946 -0.0778,0.516466 -0.0405,0.679715 -0.11457,1.350963 -0.16008,1.455209 -0.0212,0.04868 -0.0728,0.326496 -0.1143,0.617537 -0.0415,0.291042 -0.0889,0.538956 -0.10504,0.551127 -0.0161,0.01217 -0.0654,0.195792 -0.10927,0.407988 -0.0439,0.212196 -0.0945,0.385762 -0.11218,0.385762 -0.16695,0 -0.12832,0.805392 0.041,0.859102 0.0754,0.02381 0.37174,0.328348 0.61992,0.636852 0.0609,0.07541 0.14499,0.170921 0.18759,0.212196 0.0423,0.04154 0.077,0.100542 0.077,0.131234 0,0.03096 0.0397,0.08096 0.0884,0.111125 0.0484,0.03043 0.0881,0.068 0.0881,0.08361 0,0.01561 0.10874,0.214312 0.24156,0.441325 0.13256,0.227012 0.25321,0.467519 0.26803,0.534194 0.0145,0.06668 0.0434,0.121179 0.064,0.121179 0.0206,0 0.0693,0.1143 0.10847,0.253735 0.0389,0.139436 0.0907,0.293159 0.11483,0.341577 0.0243,0.04868 0.0587,0.227277 0.077,0.396875 l 0.0331,0.308769 -0.3765,-0.01376 c -0.61515,-0.02275 -1.78594,-0.220134 -1.8534,-0.312473 -0.0122,-0.01667 -0.10901,-0.05821 -0.21511,-0.09234 -0.10636,-0.0344 -0.26988,-0.117739 -0.36354,-0.185737 -0.0937,-0.06773 -0.18521,-0.124619 -0.20373,-0.125942 -0.0183,-0.0016 -0.10292,-0.09022 -0.18785,-0.197114 -0.0849,-0.106628 -0.18839,-0.236803 -0.23019,-0.28919 -0.0415,-0.05212 -0.0886,-0.137054 -0.10451,-0.188648 -0.0156,-0.05186 -0.064,-0.173567 -0.10742,-0.270404 -0.0434,-0.0971 -0.10239,-0.345281 -0.13097,-0.551392 -0.0283,-0.20611 -0.0725,-0.413279 -0.0976,-0.460375 -0.0286,-0.05292 -0.0548,-0.750094 -0.0688,-1.831446 -0.0241,-1.85367 -0.0254,-1.84097 0.17648,-1.90791 0.10557,-0.03519 0.2278,-5.281083 0.12303,-5.281083 -0.0251,0 -0.045,-0.106892 -0.045,-0.242623 0,-0.13335 0.0161,-0.242359 0.0357,-0.242359 0.0196,0 0.0603,-0.09631 0.0905,-0.213783 0.0302,-0.117475 0.10345,-0.285221 0.16272,-0.372533 0.0593,-0.08731 0.10795,-0.178594 0.10795,-0.202936 0,-0.02434 0.0249,-0.06006 0.055,-0.07964 0.0534,-0.03387 0.0966,-0.101865 0.30083,-0.47334 0.0524,-0.09551 0.12118,-0.199496 0.15293,-0.231246 0.0315,-0.03148 0.0818,-0.132027 0.11139,-0.223043 0.0296,-0.09128 0.0712,-0.177271 0.0923,-0.19103 0.10266,-0.06694 0.24712,-1.02182 0.16986,-1.121304 -0.0188,-0.02434 -0.0601,-0.19288 -0.0915,-0.374913 -0.0315,-0.181769 -0.0712,-0.340783 -0.0884,-0.35269 -0.0172,-0.01217 -0.064,-0.220662 -0.10372,-0.463021 -0.04,-0.242622 -0.0907,-0.480747 -0.11298,-0.529166 -0.036,-0.07832 -0.0754,-0.290513 -0.16378,-0.882121 -0.0145,-0.09684 -0.0394,-0.186267 -0.0553,-0.198438 -0.0159,-0.01217 -0.0646,-0.1905 -0.10795,-0.396875 -0.0434,-0.20611 -0.0945,-0.394493 -0.11324,-0.418835 -0.0188,-0.02434 -0.0603,-0.148167 -0.0923,-0.275696 -0.032,-0.127264 -0.0712,-0.23151 -0.0873,-0.23151 -0.0161,0 -0.064,-0.128852 -0.10662,-0.286544 -0.0429,-0.157692 -0.0931,-0.286544 -0.11192,-0.286544 -0.019,0 -0.0479,-0.07197 -0.0643,-0.159543 -0.0164,-0.08784 -0.0767,-0.261673 -0.13388,-0.386557 -0.0569,-0.124883 -0.11748,-0.281252 -0.13388,-0.347662 -0.0167,-0.06641 -0.0442,-0.12065 -0.0609,-0.12065 -0.0169,0 -0.0664,-0.09922 -0.11007,-0.220398 -0.0437,-0.121179 -0.095,-0.220398 -0.11403,-0.220398 -0.0193,0 -0.0466,-0.0463 -0.0609,-0.102923 -0.036,-0.14314 -0.49557,-0.735012 -0.57071,-0.735012 -0.0236,0 -0.0648,-0.02778 -0.0915,-0.06138 -0.12276,-0.154252 -0.86175,-0.315384 -0.93107,-0.2032 -0.0148,0.02434 -0.0595,0.04418 -0.099,0.04418 -0.118,0 -0.42492,0.166423 -0.6096,0.330729 -0.0953,0.08493 -0.18811,0.154252 -0.20637,0.154252 -0.0183,0 -0.0331,0.02858 -0.0331,0.06377 0,0.03493 -0.0392,0.09102 -0.0873,0.124619 -0.111921,0.07832 -0.274375,0.319616 -0.348723,0.51726 -0.03175,0.08467 -0.0807,0.201877 -0.108479,0.26035 -0.0672,0.139965 -0.06615,1.017587 0.0011,1.155171 0.02831,0.05821 0.0852,0.249766 0.125942,0.425714 0.04101,0.176213 0.08996,0.329671 0.108744,0.341577 0.01905,0.01164 0.06006,0.150284 0.09155,0.30824 0.03122,0.157692 0.07329,0.287073 0.09313,0.287073 0.01958,0 0.03598,0.09922 0.03598,0.220398 0,0.121179 -0.0198,0.220398 -0.04419,0.220398 -0.02434,0 -0.04419,0.0254 -0.04419,0.05636 0,0.03096 -0.0299,0.09922 -0.06641,0.151606 l -0.06668,0.09498 -0.139171,-0.127 c -0.07649,-0.06985 -0.195287,-0.150283 -0.264079,-0.178858 -0.06879,-0.02858 -0.125148,-0.06747 -0.125148,-0.08678 0,-0.01905 -0.07938,-0.04815 -0.176212,-0.06456 l -0.176478,-0.0299 v -0.302418 c 0,-0.303213 -0.07302,-0.750623 -0.129381,-0.792163 -0.0164,-0.01217 -0.05398,-0.08176 -0.08361,-0.154781 -0.04868,-0.120915 -0.251617,-0.360363 -0.41804,-0.493713 -0.2794,-0.223308 -1.221052,-0.406135 -1.221052,-0.237066 0,0.02249 -0.0545,0.05265 -0.121179,0.06747 -0.59981,0.132291 -0.802217,1.441979 -0.305594,1.976437 0.08493,0.09155 0.206375,0.327554 0.206375,0.401373 0,0.125148 -0.141287,0.490273 -0.203464,0.525992 -0.0336,0.01958 -0.06112,0.06033 -0.06112,0.09102 0,0.03069 -0.03731,0.09551 -0.08255,0.144198 -0.237331,0.254529 -0.405871,1.448858 -0.234686,1.661319 0.02355,0.02884 0.05689,0.141816 0.07461,0.251089 0.01746,0.109008 0.06694,0.277813 0.109538,0.374915 0.04286,0.09684 0.1016,0.250825 0.130969,0.341577 0.0291,0.09102 0.07117,0.165365 0.09366,0.165365 0.02223,0 0.04075,0.02461 0.04075,0.05477 0,0.05794 0.527843,1.142207 0.57441,1.180042 0.04313,0.03492 0.175154,0.544512 0.175154,0.675481 0,0.06509 0.01984,0.118269 0.04419,0.118269 0.0254,0 0.04392,0.1397 0.04392,0.330729 0,0.182033 -0.01587,0.330729 -0.03545,0.330729 -0.01984,0 -0.07197,0.967317 -0.116152,2.14974 -0.04445,1.182423 -0.09763,2.168525 -0.118798,2.191544 -0.0209,0.02302 -0.0381,0.242623 -0.0381,0.487891 0,0.652727 0.160073,0.764117 1.106223,0.769673 l 0.246592,0.0016 0.02752,1.137443 c 0.0291,1.198298 -0.0019,2.333625 -0.06429,2.372519 -0.02064,0.0127 -0.03731,0.08625 -0.03757,0.163777 0,0.204788 -0.132556,0.929217 -0.174625,0.95594 -0.01958,0.01243 -0.06218,0.111654 -0.09446,0.220927 -0.03228,0.109008 -0.114036,0.280723 -0.18124,0.381265 -0.06747,0.100541 -0.122767,0.193939 -0.122767,0.207433 0,0.04313 -0.208227,0.23495 -0.420952,0.387879 l -0.206123,0.147887 -1.313921,0.01297 -1.314185,0.0127 -0.04471,-0.189177 c -0.08969,-0.378355 -0.189706,-0.721255 -0.248179,-0.850636 -0.03307,-0.07276 -0.08334,-0.221721 -0.112183,-0.330729 -0.02884,-0.109273 -0.068,-0.218281 -0.08678,-0.242623 -0.107156,-0.137319 -0.164571,-0.990071 -0.105039,-1.558925 0.02805,-0.268552 0.02963,-0.271198 0.166952,-0.271198 0.08784,0 0.193939,-0.04604 0.289189,-0.125412 l 0.150284,-0.125413 -0.01244,-1.186391 c -0.01323,-1.284288 0.07752,-3.898371 0.135731,-3.898371 0.04762,0 0.04604,-2.722563 -0.0016,-2.751932 -0.02064,-0.0127 -0.05027,-0.217222 -0.06562,-0.454554 -0.03307,-0.501914 -0.120915,-1.127389 -0.163248,-1.159139 -0.01614,-0.01217 -0.0426,-0.107686 -0.05874,-0.211932 -0.03149,-0.201612 -0.04895,-0.17092 0.309298,-0.547422 0.151609,-0.15928 0.480751,-0.831056 0.524936,-1.071298 0.01799,-0.09684 0.04762,-0.186002 0.06641,-0.198173 0.15875,-0.104246 0.159014,-2.105554 5.29e-4,-2.31484 -0.01852,-0.02434 -0.059,-0.138377 -0.09022,-0.25347 -0.03122,-0.115359 -0.06879,-0.20955 -0.08387,-0.209815 -0.01508,0 -0.0635,-0.08758 -0.107421,-0.194733 -0.04418,-0.107157 -0.108479,-0.205582 -0.143404,-0.218811 -0.03466,-0.01349 -0.06324,-0.05186 -0.06324,-0.08546 0,-0.07488 -0.446617,-0.496887 -0.565944,-0.534723 -0.04789,-0.01508 -0.09975,-0.07885 -0.115359,-0.141552 -0.05133,-0.204523 -0.420952,-0.429684 -0.528637,-0.322263 -0.210608,0.210609 -0.299244,-0.05053 -0.322527,-0.949589 -0.01085,-0.412221 -0.03731,-0.768615 -0.05927,-0.791634 -0.02196,-0.02302 -0.03995,-0.116152 -0.03995,-0.207168 0,-0.608807 -0.33655,-1.193007 -0.823383,-1.42875 -0.291571,-0.141288 -1.377686,-0.145257 -1.524265,-0.0056 -0.03043,0.02911 -0.109008,0.07646 -0.174096,0.105305 -0.156633,0.06932 -0.461433,0.459052 -0.500591,0.640556 -0.0172,0.07911 -0.04789,0.154517 -0.06826,0.167481 -0.05609,0.03598 -0.173566,0.703263 -0.23786,1.34964 -0.07937,0.802481 -0.113506,1.030023 -0.154517,1.030023 -0.01932,0 -0.04762,0.04974 -0.06271,0.110331 -0.01799,0.07117 -0.05874,0.110066 -0.115094,0.110066 -0.04815,0 -0.08731,0.01852 -0.08731,0.04127 0,0.02275 -0.05318,0.04736 -0.118004,0.05503 -0.139435,0.01667 -0.227806,0.157957 -0.34581,0.554303 -0.04524,0.151606 -0.09684,0.275431 -0.114829,0.275431 -0.01799,0 -0.04683,0.04471 -0.06377,0.09922 -0.01693,0.05477 -0.08784,0.220398 -0.157427,0.368035 -0.06932,0.147902 -0.126207,0.291836 -0.126207,0.319882 0,0.02805 -0.01852,0.0508 -0.04127,0.0508 -0.02249,0 -0.05503,0.04472 -0.07223,0.09922 -0.01693,0.0545 -0.08784,0.223837 -0.157162,0.375973 -0.06959,0.152135 -0.126207,0.301625 -0.126207,0.331787 0,0.03043 -0.02619,0.09446 -0.05821,0.142346 -0.03175,0.04789 -0.08255,0.176212 -0.112977,0.285485 -0.03016,0.109009 -0.08123,0.257969 -0.113506,0.330729 -0.154252,0.348457 -0.200025,1.45415 -0.07197,1.741752 0.08917,0.200554 0.232833,0.416454 0.315119,0.474133 0.04471,0.03149 0.111654,0.08731 0.148696,0.124619 0.03731,0.03704 0.162189,0.0979 0.277812,0.134673 0.371475,0.118798 0.538956,0.26961 0.368565,0.332317 -0.02196,0.0079 -0.0725,0.292364 -0.112448,0.632089 -0.03995,0.339461 -0.08969,0.649023 -0.110596,0.687652 -0.02064,0.03863 -0.06218,0.306652 -0.09207,0.595313 -0.03016,0.28866 -0.06985,0.544777 -0.08837,0.569119 -0.01879,0.02408 -0.0672,0.431006 -0.107685,0.903816 -0.04075,0.473075 -0.09022,0.891646 -0.110332,0.93054 -0.135466,0.262731 -0.140229,4.028546 -0.0053,4.2037 0.02011,0.02593 0.06033,0.195791 0.08916,0.37756 0.114036,0.712259 0.305065,0.855134 1.24169,0.928952 0.671248,0.05292 0.641085,0.04207 0.67945,0.24765 0.0172,0.09287 0.04868,0.189707 0.06985,0.215107 0.04313,0.05239 0.201083,0.849047 0.264583,1.334029 0.03466,0.266964 0.0299,0.345016 -0.02831,0.457729 -0.04604,0.0889 -0.06033,0.183621 -0.04127,0.273314 0.06456,0.306123 0.07541,0.522288 0.02805,0.569384 -0.02672,0.02699 -0.04868,0.09446 -0.04868,0.150283 v 0.101336 h -1.631688 -1.631686 v 0.4191 0.418835 h 1.920346 1.920081 l 0.105569,-0.105569 c 0.07805,-0.07779 0.113506,-0.176212 0.13626,-0.375708 0.01667,-0.148696 0.04762,-0.280988 0.06879,-0.293952 0.02117,-0.01297 0.03836,-0.176477 0.03836,-0.363273 0,-0.186531 0.01826,-0.40349 0.04075,-0.482071 0.04445,-0.155046 -0.02487,-1.339321 -0.08096,-1.37795 -0.01773,-0.01217 -0.0672,-0.240242 -0.110066,-0.506942 -0.04286,-0.2667 -0.09287,-0.495035 -0.110861,-0.507206 -0.01799,-0.01217 -0.06985,-0.166158 -0.114829,-0.341842 -0.04524,-0.175947 -0.09816,-0.319881 -0.117739,-0.319881 -0.01958,0 -0.03545,-0.0381 -0.03545,-0.08493 0,-0.202935 -0.169069,-0.254265 -0.908844,-0.276754 -0.799836,-0.02434 -0.785284,-0.01667 -0.833967,-0.446088 -0.01693,-0.149754 -0.05371,-0.300302 -0.08123,-0.334433 -0.07038,-0.08705 -0.07064,-3.34301 -2.64e-4,-3.492235 0.02752,-0.05821 0.08414,-0.512763 0.125941,-1.009915 0.0418,-0.497152 0.08863,-0.923925 0.104246,-0.948002 0.01587,-0.02434 0.06165,-0.282311 0.102129,-0.573352 0.180446,-1.297517 0.268288,-1.858434 0.303213,-1.94019 0.04471,-0.10451 0.130439,-0.665956 0.130439,-0.854869 0,-0.248179 -0.162454,-0.370152 -0.540014,-0.4064 -0.569119,-0.05424 -0.837406,-0.343164 -0.762,-0.821001 0.07488,-0.474927 0.128058,-0.743215 0.150812,-0.762 0.01455,-0.01217 0.06932,-0.141288 0.121444,-0.286808 0.207433,-0.578909 0.260085,-0.707761 0.313002,-0.763852 0.03043,-0.03202 0.0553,-0.07646 0.0553,-0.09895 0,-0.04154 0.124354,-0.3175 0.469106,-1.039019 0.105834,-0.221456 0.192352,-0.422804 0.192352,-0.447146 0,-0.02461 0.04683,-0.05636 0.104246,-0.07091 0.164042,-0.04101 0.461963,-0.3683 0.521494,-0.572558 0.02937,-0.100277 0.06668,-0.192352 0.08255,-0.204523 0.04683,-0.03519 0.12356,-0.556684 0.155575,-1.058334 0.0164,-0.254793 0.04418,-0.482864 0.06218,-0.507206 0.01799,-0.02408 0.0463,-0.173037 0.06297,-0.330729 0.07329,-0.689769 0.340254,-0.965465 0.880533,-0.909108 0.481013,0.05001 0.600869,0.261937 0.633413,1.118658 0.01217,0.321469 0.03651,0.5842 0.05424,0.5842 0.01773,0 0.04233,0.233362 0.0545,0.518319 0.02937,0.694796 0.174096,1.005152 0.557212,1.196181 0.297656,0.148167 0.468842,0.24765 0.483659,0.280987 0.0082,0.01826 0.05345,0.03307 0.100806,0.03307 0.04736,0 0.199496,0.116153 0.338137,0.257969 0.360892,0.369359 0.353219,0.358246 0.433123,0.623888 0.04022,0.13335 0.08996,0.253471 0.110861,0.266964 0.120385,0.07752 0.121179,1.675607 7.93e-4,1.760538 -0.01773,0.0127 -0.06668,0.148431 -0.108479,0.301625 -0.0418,0.153194 -0.09578,0.302154 -0.119856,0.330729 -0.07673,0.09128 -0.259292,0.357717 -0.308769,0.450585 -0.02619,0.04921 -0.111125,0.116681 -0.188383,0.149754 -0.268288,0.11483 -0.471488,0.577586 -0.300038,0.683419 0.02143,0.01323 0.06403,0.158221 0.09472,0.322263 0.03043,0.164041 0.07117,0.308504 0.09049,0.321204 0.04604,0.03043 0.172773,1.191419 0.172773,1.584589 0,0.1778 0.01878,0.310621 0.04392,0.310621 0.0545,0 0.06112,1.439598 0.0071,1.472936 -0.02037,0.0127 -0.04974,0.395816 -0.06535,0.851429 -0.01561,0.455877 -0.05054,1.344612 -0.07779,1.975114 -0.02725,0.630767 -0.04207,1.427957 -0.03334,1.77165 l 0.01614,0.624946 -0.1905,0.02858 c -0.119327,0.01773 -0.200819,0.05609 -0.217752,0.102659 -0.01508,0.04075 -0.04418,0.08546 -0.06482,0.09922 -0.17436,0.118269 -0.164306,2.730765 0.01058,2.730765 0.01746,0 0.06535,0.133614 0.106363,0.296862 0.04101,0.163248 0.09049,0.316971 0.109802,0.341842 0.01958,0.02461 0.06165,0.153988 0.09366,0.287338 0.03175,0.13335 0.07355,0.264054 0.0926,0.289983 0.01932,0.02619 0.04842,0.191823 0.06482,0.368564 0.02302,0.24765 0.05424,0.350044 0.137054,0.448734 l 0.107421,0.127529 1.68275,-2.65e-4 c 1.612371,-2.64e-4 1.938073,-0.0217 2.074598,-0.136789 0.02699,-0.02302 0.142875,-0.102129 0.257175,-0.175948 0.235479,-0.152136 0.651933,-0.588169 0.651933,-0.682625 0,-0.03466 0.01746,-0.06271 0.03889,-0.06271 0.04604,0 0.240506,-0.388409 0.32041,-0.639498 0.03069,-0.09684 0.0717,-0.197909 0.09049,-0.224367 0.01905,-0.02672 0.0672,-0.254794 0.107156,-0.507206 0.03969,-0.252413 0.09446,-0.506677 0.121444,-0.56515 0.0344,-0.07382 0.04789,-0.75565 0.04498,-2.25134 -0.0056,-2.667529 0.05689,-2.469356 -0.778404,-2.470414 -0.463285,-5.3e-4 -0.518319,-0.009 -0.519377,-0.07779 -0.0074,-0.461698 0.150283,-3.976952 0.180975,-4.034367 0.05636,-0.106097 0.05345,-1.577181 -0.0034,-1.577181 -0.02408,0 -0.04392,-0.05133 -0.04392,-0.1143 0,-0.152664 -0.113506,-0.535516 -0.221456,-0.747448 -0.04815,-0.09419 -0.08731,-0.194998 -0.08731,-0.224102 0,-0.02937 -0.01561,-0.0598 -0.03466,-0.068 -0.04207,-0.01773 -0.582612,-1.112837 -0.582612,-1.180041 0,-0.02593 -0.01746,-0.04736 -0.0389,-0.04736 -0.04127,0 -0.181769,-0.509059 -0.181769,-0.659342 0,-0.04974 -0.01984,-0.09022 -0.04392,-0.09022 -0.172243,0 0.01879,-0.81915 0.243417,-1.043517 0.03572,-0.03572 0.07726,-0.113241 0.09181,-0.172243 0.01482,-0.059 0.0418,-0.107157 0.05953,-0.107157 0.03889,0 0.178329,-0.416189 0.178329,-0.531548 0,-0.04445 0.01984,-0.09287 0.04419,-0.10795 0.0545,-0.0336 0.059,-0.46302 0.0048,-0.46302 -0.0217,0 -0.05054,-0.04498 -0.06429,-0.100013 -0.02231,-0.08784 -0.270488,-0.501916 -0.336634,-0.561447 -0.147902,-0.132556 -0.163248,-0.447939 -0.02884,-0.592931 0.101335,-0.109273 0.248443,-0.152665 0.248443,-0.07329 0,0.0217 0.0471,0.05107 0.104775,0.06562 0.299509,0.07514 0.457994,0.563034 0.352161,1.082675 -0.120121,0.589227 -0.02434,0.749829 0.478631,0.80354 0.323321,0.03466 0.711729,0.233362 0.762,0.39026 0.05636,0.175154 0.245004,0.308504 0.436298,0.308504 0.193146,0 0.468052,-0.105304 0.468052,-0.179652 0,-0.02222 0.0257,-0.04075 0.0569,-0.04075 0.0468,0 0.2749,-0.227277 0.42069,-0.418835 0.0728,-0.09578 0.18388,-0.427831 0.18388,-0.54954 0,-0.07091 0.0198,-0.141023 0.0439,-0.156104 0.0243,-0.01508 0.0442,-0.09446 0.0442,-0.176477 0,-0.08202 -0.0198,-0.161396 -0.0442,-0.176212 -0.0241,-0.01508 -0.0439,-0.0852 -0.0439,-0.15584 0,-0.174096 -0.13838,-0.792427 -0.17727,-0.792427 -0.0172,0 -0.068,-0.16854 -0.11324,-0.37465 -0.0452,-0.206375 -0.0976,-0.374915 -0.11642,-0.374915 -0.082,0 -0.0331,-0.560123 0.0656,-0.753268 0.24844,-0.485246 0.61092,-0.779728 0.89456,-0.726546 0.13573,0.0254 0.41672,0.278871 0.41672,0.375708 0,0.0217 0.0249,0.06588 0.0553,0.09816 0.0746,0.07938 0.32861,0.601927 0.36539,0.752475 0.0164,0.06668 0.045,0.121179 0.0635,0.121179 0.0183,0 0.068,0.12409 0.11059,0.275696 0.0423,0.151606 0.0897,0.285485 0.10504,0.297656 0.0318,0.02514 0.195,0.477309 0.30242,0.837671 0.04,0.13335 0.0863,0.252413 0.10345,0.264583 0.0172,0.01217 0.0651,0.190765 0.10689,0.396875 0.0418,0.206375 0.0884,0.394759 0.10372,0.4191 0.028,0.04419 0.16748,0.715963 0.30215,1.455209 0.0397,0.218281 0.0852,0.406664 0.1016,0.418835 0.19553,0.146844 0.19447,1.448859 -10e-4,1.5875 -0.0172,0.01217 -0.0736,0.101336 -0.12567,0.198438 -0.10928,0.203994 -0.15849,0.282575 -0.32518,0.522552 -0.0667,0.09578 -0.12117,0.201083 -0.12117,0.233627 0,0.03281 -0.0183,0.05953 -0.0405,0.05953 -0.0579,0 -0.31221,0.538427 -0.34264,0.724959 -0.014,0.08625 -0.0426,0.157162 -0.0638,0.157162 -0.0212,0 -0.0384,1.197504 -0.0384,2.693194 v 2.693458 l -0.13626,0.136261 -0.13653,0.136525 0.0156,2.164291 c 0.0109,1.489075 0.0312,2.191809 0.0653,2.252398 0.027,0.04842 0.0799,0.286279 0.11748,0.528108 0.0376,0.242094 0.0897,0.447146 0.11562,0.455613 0.0259,0.0087 0.0471,0.05212 0.0471,0.09657 0,0.07938 0.25929,0.602456 0.36513,0.736335 0.18335,0.232304 0.51276,0.548482 0.61595,0.591344 0.0667,0.02752 0.12118,0.06588 0.12118,0.08493 0,0.04736 0.62071,0.351367 0.71702,0.351367 0.0423,0 0.0767,0.01773 0.0767,0.03942 0,0.0217 0.19367,0.07541 0.42995,0.119062 0.23653,0.04392 0.44,0.09313 0.45217,0.109802 0.0344,0.04736 1.1467,0.128853 1.73699,0.127265 0.55562,-0.0016 0.62759,-0.02196 0.72522,-0.205317 0.0974,-0.183091 0.0347,-1.471877 -0.0794,-1.623483 -0.0183,-0.02408 -0.0569,-0.141287 -0.086,-0.26035 -0.0288,-0.119062 -0.11112,-0.341577 -0.18256,-0.494242 -0.0714,-0.152929 -0.12991,-0.298714 -0.12991,-0.32385 0,-0.0254 -0.0185,-0.04604 -0.0413,-0.04604 -0.0225,0 -0.0545,-0.04445 -0.0709,-0.09922 -0.0347,-0.116152 -0.28972,-0.5334 -0.3392,-0.554831 -0.0185,-0.0079 -0.0339,-0.03096 -0.0339,-0.05054 0,-0.04233 -0.25612,-0.429154 -0.36698,-0.554037 -0.0421,-0.04736 -0.20981,-0.232304 -0.37279,-0.410633 -0.28972,-0.316971 -0.33523,-0.427567 -0.23019,-0.557477 0.0196,-0.02434 0.0603,-0.173303 0.0902,-0.33073 0.0302,-0.157691 0.072,-0.309033 0.0931,-0.33602 0.0209,-0.02725 0.0685,-0.265378 0.1053,-0.529167 0.0368,-0.264054 0.0849,-0.512233 0.10689,-0.552186 0.022,-0.03969 0.0733,-0.466195 0.11404,-0.948002 0.0408,-0.481806 0.0966,-0.923395 0.12382,-0.981868 0.0757,-0.160073 0.0706,-5.303838 -0.005,-5.328973 -0.0336,-0.01111 -0.0553,-0.09869 -0.0553,-0.223573 0,-0.360892 -0.14049,-1.661054 -0.18124,-1.6764 -0.0214,-0.0079 -0.0392,-0.06509 -0.0392,-0.126736 0,-0.163777 -0.13731,-0.953293 -0.17489,-1.004887 -0.0175,-0.02434 -0.0582,-0.143404 -0.0905,-0.264584 -0.0323,-0.121443 -0.0728,-0.230452 -0.0894,-0.242622 -0.11165,-0.0799 -0.16457,-0.877623 -0.0823,-1.234546 0.059,-0.256117 0.31592,-0.502973 0.61648,-0.592402 0.11986,-0.03545 0.26194,-0.09552 0.31592,-0.133086 0.0537,-0.03757 0.12329,-0.06853 0.15451,-0.06853 0.19394,0 0.64585,-0.424127 0.74375,-0.698235 0.11324,-0.316442 0.0341,-1.323711 -0.11113,-1.416844 -0.13626,-0.08758 -0.21669,-0.944562 -0.11562,-1.231371 0.19658,-0.556948 0.94985,-0.50165 1.06574,0.07832 0.0151,0.07541 0.0447,0.137319 0.0661,0.137319 0.0212,0 0.0384,0.218281 0.0384,0.484981 0,0.266965 -0.0153,0.485246 -0.0339,0.485246 -0.0188,0 -0.0579,0.125677 -0.0871,0.279135 -0.0291,0.153723 -0.082,0.335492 -0.11774,0.404019 -0.0354,0.06826 -0.0876,0.220398 -0.11562,0.337873 -0.0283,0.117475 -0.0691,0.213519 -0.091,0.213519 -0.0217,0 -0.0397,0.06959 -0.0397,0.154517 0,0.08467 0.0198,0.154252 0.0442,0.154252 0.0241,0 0.0439,0.02805 0.0439,0.06244 0,0.07541 0.25797,0.280987 0.52916,0.421216 0.37545,0.194469 1.70339,0.0725 1.89627,-0.173831 0.0122,-0.01561 0.0915,-0.05609 0.17648,-0.09022 0.0847,-0.03413 0.22013,-0.106627 0.30083,-0.160867 0.0807,-0.0545 0.18495,-0.111125 0.23151,-0.125941 0.0468,-0.01482 0.0849,-0.04551 0.0849,-0.068 0,-0.02275 0.0259,-0.04127 0.0579,-0.04127 0.0318,0 0.0963,-0.03466 0.14314,-0.07699 0.0471,-0.0426 0.16934,-0.131763 0.27199,-0.198438 0.3556,-0.23151 0.40402,-0.5461 0.32015,-2.083594 -0.0278,-0.509322 -0.0373,-1.069975 -0.0212,-1.245922 l 0.0291,-0.319617 h 0.21696 c 0.11906,0 0.21669,0.01746 0.21669,0.03863 0,0.02117 0.0638,0.05133 0.14208,0.06694 0.31697,0.0635 0.40905,0.248708 0.40905,0.824706 0,0.389731 -0.0159,0.530489 -0.0662,0.591079 -0.0802,0.09657 -0.0971,1.106752 -0.0196,1.15914 0.0257,0.0172 0.0709,0.09155 0.10054,0.1651 0.13653,0.338137 0.72972,0.738452 1.28402,0.86651 0.12224,0.02831 0.22252,0.06509 0.22252,0.08176 0,0.01667 0.15266,0.05503 0.33919,0.0852 0.1868,0.03016 0.38021,0.08043 0.42995,0.111919 0.05,0.03149 0.15531,0.07064 0.23416,0.08731 0.0789,0.0164 0.14314,0.04895 0.14314,0.07223 0,0.02328 0.0572,0.165629 0.12673,0.316177 0.0696,0.150548 0.15267,0.382852 0.18468,0.516202 0.032,0.13335 0.0728,0.262731 0.0907,0.287602 0.018,0.02461 0.0566,0.183356 0.086,0.352689 0.0291,0.169334 0.0667,0.317765 0.0833,0.329936 0.0169,0.01217 0.0662,0.230452 0.1098,0.484981 0.0437,0.254794 0.0998,0.488686 0.12462,0.519906 0.0333,0.04127 0.0109,0.09419 -0.0825,0.196057 -0.0704,0.07646 -0.15531,0.169068 -0.18891,0.205581 -0.0667,0.07276 -0.0392,0.70485 0.0328,0.751681 0.18151,0.118533 0.18838,3.890169 0.008,4.302125 -0.0214,0.04842 -0.0624,0.336285 -0.0915,0.639233 -0.0291,0.303213 -0.0672,0.571236 -0.0849,0.595313 -0.0177,0.02434 -0.0677,0.341841 -0.11165,0.705643 -0.0437,0.363803 -0.0937,0.681303 -0.11139,0.705644 -0.0177,0.02408 -0.0672,0.321734 -0.11007,0.661459 -0.0426,0.33946 -0.0926,0.637116 -0.11086,0.661458 -0.0183,0.02408 -0.0691,0.351631 -0.11271,0.727604 -0.0439,0.375708 -0.0934,0.693208 -0.11033,0.705379 -0.0169,0.01217 -0.0561,0.319881 -0.087,0.683684 -0.0307,0.363802 -0.0773,0.688975 -0.10319,0.722577 -0.031,0.03995 -0.0513,0.5842 -0.059,1.57427 -0.0111,1.434307 -0.0362,1.738048 -0.14393,1.738048 -0.15002,0 -0.16748,0.513821 -0.0267,0.787136 0.15002,0.291306 0.37967,0.787664 0.37967,0.820473 0,0.02884 0.0561,0.102923 0.18733,0.24765 0.0738,0.08123 0.15557,0.08493 1.88251,0.08493 1.15596,0 1.81531,0.01588 1.83277,0.04418 0.0865,0.14023 0.79851,0.01297 0.96652,-0.172773 0.0897,-0.09895 0.0783,-0.921014 -0.0151,-1.09511 -0.0228,-0.04233 -0.0746,-0.343429 -0.11483,-0.668602 -0.0402,-0.325173 -0.0897,-0.622829 -0.1098,-0.661458 -0.0198,-0.03863 -0.0614,-0.248709 -0.0918,-0.46699 -0.0304,-0.218281 -0.0677,-0.406665 -0.0828,-0.418835 -0.0151,-0.01217 -0.0646,-0.250296 -0.1098,-0.529167 -0.0452,-0.278871 -0.0955,-0.516996 -0.11139,-0.529167 -0.0683,-0.05186 -0.14843,-0.872331 -0.15267,-1.565539 -0.006,-0.884767 -0.055,-1.029494 -0.49265,-1.438804 -0.72734,-0.680773 -0.69056,-0.608542 -0.66569,-1.305984 0.0114,-0.321204 0.0405,-0.608806 0.0648,-0.639233 0.0243,-0.03069 0.068,-0.293688 0.0968,-0.584729 0.0288,-0.291042 0.0688,-0.568854 0.0886,-0.617273 0.0201,-0.04842 0.0683,-0.280988 0.10715,-0.516731 0.0677,-0.409046 0.26644,-1.090348 0.33206,-1.136915 0.0169,-0.01217 0.059,-0.09155 0.0934,-0.176477 0.0728,-0.179388 0.13044,-0.255852 0.37994,-0.502444 0.23759,-0.23495 0.27252,-0.260614 0.4564,-0.334169 0.14288,-0.05715 0.38974,-0.21881 0.51621,-0.337873 0.27305,-0.256645 0.372,-0.926306 0.19394,-1.312068 -0.0458,-0.09973 -0.14632,-0.320123 -0.22305,-0.489985 -0.0767,-0.169598 -0.15664,-0.340784 -0.1778,-0.380207 -0.14632,-0.27252 -0.002,-0.655902 0.24659,-0.655902 0.0339,0 0.0617,-0.01667 0.0617,-0.03731 0,-0.02037 0.12382,-0.07329 0.27543,-0.118004 0.15161,-0.04445 0.29554,-0.09525 0.31988,-0.112712 0.0458,-0.03334 0.36301,-0.06112 0.54663,-0.04815 l 0.10557,0.0074 -0.0246,0.447145 c -0.0135,0.245798 -0.0437,0.459052 -0.0669,0.473869 -0.0759,0.04842 -0.19659,0.867833 -0.17886,1.214967 l 0.0167,0.331522 0.35216,0.342636 c 0.29792,0.289719 0.56224,0.574939 0.8292,0.894027 0.0304,0.03625 0.13388,0.184944 0.22993,0.330465 0.096,0.145256 0.19817,0.289189 0.22675,0.319881 0.0288,0.03069 0.0648,0.09525 0.0802,0.143669 0.0153,0.04842 0.0423,0.08784 0.0601,0.08784 0.0177,0 0.0587,0.07461 0.0907,0.165365 0.032,0.09102 0.0857,0.19685 0.11932,0.235214 0.0333,0.03837 0.0968,0.211667 0.14076,0.385234 0.0442,0.173566 0.0937,0.328877 0.11033,0.345546 0.0905,0.09075 -0.12568,0.632618 -0.25241,0.632618 -0.0458,0 -0.16007,0.115623 -0.37703,0.381529 -0.023,0.02778 -0.0738,0.156898 -0.11324,0.286544 -0.0394,0.129911 -0.0902,0.270669 -0.11298,0.313267 -0.14367,0.268287 -0.13785,3.478212 0.006,3.624527 0.0688,0.06985 0.0497,0.491596 -0.0249,0.553508 -0.0363,0.03016 -0.0662,0.07541 -0.0662,0.100542 0,0.02487 -0.0505,0.111919 -0.11245,0.193146 -0.0619,0.08123 -0.13335,0.206904 -0.15875,0.279664 -0.0254,0.07276 -0.064,0.132292 -0.0857,0.132292 -0.022,0 -0.04,0.02064 -0.04,0.04604 0,0.0254 -0.04,0.129116 -0.0889,0.230452 -0.10874,0.22516 -0.15981,0.547687 -0.19976,1.264973 -0.0169,0.302418 -0.0468,0.580231 -0.0667,0.617537 -0.064,0.121708 -0.17357,2.105819 -0.12382,2.248165 0.0656,0.188383 0.72204,0.365125 0.81253,0.218545 0.0138,-0.02196 0.56991,-0.04022 1.24592,-0.04101 1.2364,-0.0016 1.37531,-0.01852 1.37531,-0.168804 0,-0.02778 0.0183,-0.05027 0.0407,-0.05027 0.0222,0 0.0646,-0.07461 0.0937,-0.165365 0.0294,-0.09102 0.0775,-0.195262 0.10742,-0.23151 0.0299,-0.03651 0.0786,-0.1651 0.10795,-0.286015 0.0296,-0.121179 0.0701,-0.240241 0.0905,-0.264583 0.0408,-0.04948 0.17701,-0.673894 0.17701,-0.810948 0,-0.04763 0.0188,-0.09313 0.0418,-0.101071 0.023,-0.0082 0.0643,-0.242887 0.0916,-0.521758 0.0272,-0.279135 0.0667,-0.539485 0.0873,-0.578908 0.13361,-0.253471 0.16324,-4.828117 0.0415,-6.366404 -0.0212,-0.266965 -0.0701,-0.98134 -0.10848,-1.5875 -0.0386,-0.606425 -0.0876,-1.142207 -0.10875,-1.190625 -0.0212,-0.04868 -0.0712,-0.611982 -0.11112,-1.252009 -0.0455,-0.733954 -0.0916,-1.185333 -0.12436,-1.22211 -0.0286,-0.03228 -0.0791,-0.09049 -0.11218,-0.129646 -0.0519,-0.06165 -0.13044,-0.0672 -0.57944,-0.04022 -0.61992,0.03678 -0.74506,-0.0085 -0.84375,-0.306122 -0.10928,-0.329936 -0.0399,-1.59438 0.0971,-1.769269 0.0193,-0.02461 0.0688,-0.178594 0.1098,-0.341842 0.041,-0.163248 0.09,-0.296598 0.10848,-0.296598 0.0188,0 0.0474,-0.05477 0.0638,-0.121443 0.0291,-0.117475 0.28707,-0.672042 0.33364,-0.716492 0.0127,-0.01217 0.0587,-0.07805 0.10239,-0.146579 0.17621,-0.276754 0.86519,-0.979223 1.15359,-1.176338 0.0886,-0.06059 0.21828,-0.159808 0.2876,-0.220398 0.0693,-0.06059 0.15213,-0.132821 0.18388,-0.160073 0.35407,-0.306124 0.55463,-1.239309 0.35645,-1.658938 -0.26352,-0.556948 -0.0839,-1.304396 0.34767,-1.446742 0.0931,-0.03069 0.16906,-0.0725 0.16906,-0.09287 0,-0.05715 0.32994,-0.04366 0.44715,0.01826 0.26802,0.141552 0.43498,0.355336 0.43498,0.557477 0,0.04815 0.0198,0.100013 0.0439,0.11483 0.0265,0.0164 0.0442,0.315912 0.0442,0.750093 0,0.718344 0.0484,1.119717 0.14763,1.223963 0.0286,0.0299 0.0751,0.107156 0.10372,0.171714 0.0746,0.168804 0.6141,0.654579 0.72681,0.654579 0.022,0 0.0638,0.02011 0.0931,0.04498 0.0291,0.02461 0.18203,0.128323 0.33973,0.229923 0.33496,0.21643 0.94482,0.80698 1.12765,1.091936 0.18018,0.280723 0.45826,0.846137 0.45932,0.93345 2.6e-4,0.04048 0.0204,0.08017 0.0444,0.08811 0.0241,0.0082 0.0778,0.173566 0.11932,0.367506 0.0418,0.194204 0.0913,0.359569 0.1106,0.367506 0.0844,0.03572 0.0378,0.781315 -0.055,0.881063 -0.10504,0.112712 -0.33258,0.125677 -0.5715,0.03228 -0.47228,-0.184944 -0.55113,-0.204523 -0.71464,-0.176742 -0.24368,0.04101 -0.45482,0.499269 -0.30506,0.661988 0.0397,0.04339 0.13811,1.259152 0.13784,1.702858 0,0.160866 0.0196,0.256646 0.055,0.268287 0.0746,0.02487 0.081,5.135034 0.006,5.183188 -0.0296,0.01931 -0.0606,0.305594 -0.0799,0.736864 -0.0175,0.388144 -0.0492,0.874184 -0.0709,1.080559 -0.0217,0.20611 -0.0807,0.781579 -0.13097,1.278731 -0.0503,0.497152 -0.10927,0.943769 -0.13097,0.992187 -0.022,0.04842 -0.0728,0.385763 -0.1135,0.749565 -0.0408,0.363802 -0.0886,0.681302 -0.10663,0.705644 -0.17145,0.230452 -0.1897,1.500187 -0.0238,1.670579 0.0265,0.02699 0.0751,0.118798 0.10848,0.203465 0.0333,0.08493 0.0849,0.18415 0.11457,0.220662 0.0296,0.03625 0.0675,0.135467 0.0841,0.220398 0.0847,0.4318 -0.33603,0.396875 4.7662,0.396875 h 4.47384 v -0.418835 -0.4191 h -4.23439 -4.23413 l -0.0431,-0.110067 c -0.0553,-0.141023 -0.11377,-0.265906 -0.22542,-0.481013 -0.0892,-0.17145 -0.054,-0.829998 0.0519,-0.974195 0.0177,-0.02434 0.0669,-0.341842 0.10874,-0.705644 0.0421,-0.363802 0.0921,-0.691356 0.11112,-0.727869 0.0188,-0.03651 0.0677,-0.443442 0.10875,-0.904081 0.0408,-0.46064 0.0907,-0.877094 0.11112,-0.925777 0.0397,-0.09551 0.13203,-1.331913 0.13177,-1.766094 0,-0.154781 0.023,-0.289719 0.055,-0.321733 0.0751,-0.07514 0.081,-6.045994 0.006,-6.14045 -0.027,-0.03413 -0.0619,-0.296069 -0.0775,-0.582348 l -0.0283,-0.520171 0.25691,0.02884 c 0.48392,0.05477 1.1975,-0.261672 1.19935,-0.531812 0,-0.02408 0.0344,-0.103452 0.0765,-0.176212 0.0908,-0.157957 0.1143,-1.284552 0.0291,-1.393296 -0.0267,-0.03413 -0.0741,-0.186002 -0.10528,-0.337608 -0.0312,-0.151607 -0.0699,-0.275432 -0.0857,-0.275432 -0.0159,0 -0.0532,-0.09102 -0.0831,-0.202406 -0.0495,-0.185473 -0.28522,-0.709612 -0.41434,-0.922073 -0.0894,-0.146844 -0.31564,-0.479689 -0.38682,-0.568854 -0.26908,-0.337344 -1.06256,-1.040871 -1.17395,-1.040871 -0.0278,0 -0.0765,-0.03069 -0.10769,-0.06853 -0.0315,-0.03784 -0.12276,-0.09631 -0.20293,-0.129646 -0.16008,-0.06694 -0.2122,-0.105039 -0.44397,-0.32385 -0.23257,-0.219869 -0.27702,-0.428096 -0.27702,-1.293548 0,-0.408781 -0.0185,-0.77761 -0.0413,-0.819679 -0.0228,-0.04207 -0.0672,-0.173302 -0.0992,-0.291571 -0.032,-0.118268 -0.0828,-0.224631 -0.11324,-0.236273 -0.0302,-0.01164 -0.055,-0.04683 -0.055,-0.07832 0,-0.09631 -0.47493,-0.497416 -0.62813,-0.530754 -0.0788,-0.0172 -0.15769,-0.05318 -0.17462,-0.08017 -0.0408,-0.06403 -0.90884,-0.06694 -0.95197,-0.0034 -0.0172,0.02514 -0.11245,0.06959 -0.21193,0.09843 -0.31724,0.0926 -0.85566,0.588168 -0.85566,0.7874 0,0.03281 -0.018,0.05953 -0.0405,0.05953 -0.16457,0 -0.16246,1.468966 0.003,1.651529 0.0534,0.059 0.0479,0.641614 -0.006,0.641614 -0.0243,0 -0.0442,0.02937 -0.0442,0.06509 0,0.03598 -0.0542,0.100277 -0.12065,0.143404 -0.0661,0.04286 -0.15426,0.10795 -0.19553,0.144198 -0.0413,0.03651 -0.12832,0.105834 -0.19368,0.154517 -0.43841,0.326231 -1.38641,1.319742 -1.38641,1.452827 0,0.01799 -0.0384,0.08652 -0.0852,0.1524 -0.0468,0.06562 -0.12012,0.207698 -0.16299,0.315383 -0.0429,0.107686 -0.10371,0.22225 -0.1352,0.254265 -0.0318,0.03202 -0.0574,0.08758 -0.0574,0.12356 0,0.03598 -0.0386,0.150019 -0.0855,0.252942 -0.0471,0.103188 -0.10954,0.28575 -0.13864,0.405606 -0.0294,0.119857 -0.0696,0.238919 -0.0894,0.264584 -0.22093,0.28522 -0.2114,2.533121 0.0106,2.533121 0.0212,0 0.0384,0.02196 0.0384,0.04868 0,0.08043 0.26697,0.392113 0.33576,0.392113 0.0352,0 0.0743,0.02752 0.0873,0.06138 0.013,0.0336 0.11641,0.08414 0.23019,0.112183 0.1135,0.02831 0.26749,0.07012 0.34184,0.09313 0.0746,0.02328 0.2069,0.04207 0.29421,0.04207 0.19765,0 0.18892,-0.03969 0.25797,1.168665 0.0291,0.509323 0.0677,0.945885 0.086,0.969962 0.0183,0.02434 0.0585,0.550334 0.0894,1.168665 0.031,0.618331 0.0709,1.134533 0.0886,1.14644 0.12118,0.08281 0.12198,5.791464 10e-4,6.063456 -0.0217,0.04842 -0.0699,0.336285 -0.10742,0.639498 -0.0735,0.593989 -0.22648,1.350433 -0.28892,1.42875 -0.0212,0.02672 -0.0706,0.160337 -0.10981,0.297127 -0.0902,0.315119 -0.0431,0.302419 -1.1385,0.302419 h -0.92736 l 0.0318,-0.5842 c 0.0177,-0.321469 0.0471,-0.604044 0.0659,-0.628386 0.0185,-0.02434 0.0479,-0.2921 0.0651,-0.595312 0.0407,-0.716227 0.10054,-1.243807 0.14499,-1.275557 0.0193,-0.01402 0.0738,-0.114564 0.12118,-0.223837 0.0471,-0.109008 0.11086,-0.214313 0.14208,-0.233627 0.031,-0.01931 0.0564,-0.06271 0.0564,-0.09604 0,-0.03334 0.0272,-0.08811 0.0606,-0.121708 0.0336,-0.03334 0.1233,-0.180711 0.19976,-0.32729 l 0.13864,-0.266964 -0.0291,-0.502444 c -0.0161,-0.276225 -0.0508,-0.529696 -0.0773,-0.563034 -0.0688,-0.08678 -0.0688,-2.834745 -2.6e-4,-2.919941 0.0275,-0.03413 0.0648,-0.130175 0.0825,-0.213519 0.023,-0.107156 0.12621,-0.243152 0.35242,-0.464344 0.26565,-0.259821 0.32518,-0.344223 0.35137,-0.499004 0.0172,-0.102394 0.0495,-0.186002 0.0717,-0.186002 0.0497,0 0.0537,-0.804598 0.004,-0.862277 -0.0198,-0.02302 -0.0611,-0.14605 -0.0921,-0.273315 -0.0617,-0.253735 -0.47149,-1.113366 -0.53075,-1.113366 -0.0204,0 -0.0484,-0.04524 -0.0622,-0.100542 -0.0355,-0.141023 -0.59743,-0.88556 -0.97658,-1.293283 -0.0728,-0.07832 -0.19182,-0.212725 -0.26458,-0.29845 -0.0728,-0.08573 -0.1524,-0.156634 -0.17675,-0.157957 -0.14208,-0.0063 -0.11959,-0.880004 0.0251,-0.972873 0.0598,-0.03836 0.14129,-0.792956 0.11933,-1.102518 -0.0259,-0.360357 -0.17674,-0.640287 -0.44291,-0.820997 -0.20267,-0.137319 -1.22343,-0.198173 -1.30122,-0.07752 -0.0175,0.02699 -0.11086,0.06297 -0.20796,0.08043 -0.48842,0.08731 -1.09379,0.492125 -1.27926,0.855662 -0.12806,0.250561 -0.15055,0.929482 -0.0357,1.072886 0.0262,0.03254 0.0622,0.108744 0.0802,0.169333 0.018,0.06059 0.0873,0.22913 0.15425,0.37465 0.25162,0.547952 0.26696,0.593196 0.23998,0.701411 -0.0193,0.0762 -0.086,0.133085 -0.22172,0.188912 -0.1069,0.04392 -0.19421,0.09472 -0.19421,0.112977 -2.6e-4,0.01826 -0.0267,0.03307 -0.0593,0.03307 -0.17939,0 -0.83211,0.63209 -0.96652,0.935832 -0.0299,0.06747 -0.0677,0.122502 -0.0841,0.122502 -0.0167,0 -0.054,0.07435 -0.0831,0.165364 -0.0294,0.09102 -0.0778,0.194998 -0.10822,0.231511 -0.0302,0.03625 -0.0799,0.175418 -0.11033,0.308768 -0.0304,0.13335 -0.0725,0.26379 -0.0931,0.290248 -0.0206,0.02619 -0.0717,0.264319 -0.1135,0.529167 -0.0418,0.264583 -0.0889,0.491331 -0.10478,0.503502 -0.0159,0.01191 -0.064,0.34925 -0.10742,0.749565 -0.0431,0.40005 -0.0995,0.741098 -0.12515,0.757766 -0.0714,0.04604 -0.0675,1.456002 0.004,1.480079 0.0304,0.01006 0.055,0.04577 0.055,0.07938 0,0.08678 0.14182,0.372798 0.18468,0.372798 0.0198,0 0.036,0.02143 0.036,0.04736 0,0.05424 0.331,0.393435 0.38391,0.393435 0.0831,0 0.45403,0.462492 0.45694,0.569913 0.002,0.06244 0.002,0.391583 2.6e-4,0.731043 -0.002,0.441325 0.0214,0.74295 0.0828,1.058334 0.18495,0.950912 0.24554,1.236398 0.27226,1.278731 0.0151,0.02434 0.0627,0.28231 0.10583,0.573352 0.0431,0.291042 0.0918,0.538956 0.10822,0.551127 0.0161,0.01217 0.0653,0.309827 0.10927,0.661459 0.0437,0.351631 0.0976,0.674158 0.11933,0.716756 0.0376,0.07276 -0.0524,0.07699 -1.5965,0.07699 -1.7817,0 -1.69862,0.01243 -1.80102,-0.264584 -0.0315,-0.08467 -0.0868,-0.20955 -0.12303,-0.277283 -0.0624,-0.116946 -0.0601,-0.127794 0.0479,-0.212725 0.0627,-0.04921 0.11404,-0.118004 0.11404,-0.1524 0,-0.03466 0.0198,-0.06297 0.0439,-0.06297 0.0635,0 0.0545,-0.280723 -0.0109,-0.34634 -0.0767,-0.07673 -0.0741,-2.629164 0.003,-2.706158 0.0286,-0.02858 0.0519,-0.122502 0.0519,-0.208492 -5.3e-4,-0.280987 0.13652,-1.565539 0.17647,-1.656027 0.0217,-0.04842 0.063,-0.306387 0.0921,-0.573087 0.0291,-0.266965 0.0685,-0.516202 0.0878,-0.554302 0.0193,-0.03784 0.0675,-0.325702 0.10689,-0.639234 0.0394,-0.313795 0.0881,-0.601397 0.10822,-0.639233 0.0201,-0.03784 0.072,-0.365389 0.11536,-0.727604 0.0434,-0.362479 0.0931,-0.668867 0.11059,-0.680773 0.0177,-0.01217 0.0632,-0.280194 0.10107,-0.595312 0.0381,-0.315384 0.0884,-0.702469 0.11166,-0.859896 0.186,-1.257829 0.15637,-4.2545 -0.0458,-4.640263 -0.032,-0.06085 -0.005,-0.09816 0.13652,-0.187325 0.22754,-0.143669 0.25691,-0.267494 0.16166,-0.684477 -0.0415,-0.182033 -0.11774,-0.539221 -0.16933,-0.794015 -0.0516,-0.254529 -0.11033,-0.469635 -0.13044,-0.477573 -0.0201,-0.0082 -0.0365,-0.06826 -0.0365,-0.133879 0,-0.06535 -0.0275,-0.217487 -0.0614,-0.337873 -0.12331,-0.439999 -0.24687,-0.838726 -0.28656,-0.924716 -0.43206,-0.940329 -0.49054,-1.004887 -0.99695,-1.099344 -0.0971,-0.01826 -0.19632,-0.04789 -0.22066,-0.06641 -0.0241,-0.01826 -0.21273,-0.06853 -0.41884,-0.111919 -0.20611,-0.04313 -0.3847,-0.0926 -0.39687,-0.109802 -0.0122,-0.0172 -0.11404,-0.05424 -0.22675,-0.08202 -0.20188,-0.05001 -0.567,-0.25691 -0.567,-0.321204 0,-0.01826 -0.0347,-0.06773 -0.0773,-0.110331 -0.0881,-0.08811 -0.10531,-0.497681 -0.0249,-0.597429 0.0796,-0.09922 0.15981,-0.824971 0.13149,-1.192477 -0.0452,-0.5842 -0.33549,-1.042459 -0.80803,-1.275027 -0.2368,-0.116682 -1.33377,-0.169863 -1.63566,-0.07937"
       id="path5188"
       style="fill:#1f78b4;stroke-width:0.26458332" />
    <flowRoot
       xml:space="preserve"
       id="flowRoot844"
       style="font-style:normal;font-variant:normal;font-weight:normal;font-stretch:normal;font-size:12px;line-height:1.25;font-family:Arial;-inkscape-font-specification:'Arial, Normal';font-variant-ligatures:normal;font-variant-caps:normal;font-variant-numeric:normal;text-align:start;letter-spacing:0px;word-spacing:0px;writing-mode:lr-tb;text-anchor:start;fill:#1f78b4;fill-opacity:1;stroke:none"
       transform="matrix(0.26458333,0,0,0.26458333,87.709548,64.538954)"><flowRegion
         id="flowRegion846"
         style="fill:#1f78b4"><rect
           id="rect848"
           width="225.76909"
           height="44.446712"
           x="-2.0203052"
           y="134.77457"
           style="fill:#1f78b4" /></flowRegion><flowPara
         id="flowPara850"
         style="font-style:normal;font-variant:normal;font-weight:bold;font-stretch:normal;font-size:24.66666603px;font-family:Arial;-inkscape-font-specification:'Arial Bold'">CCCM CLUSTER</flowPara></flowRoot>  </g>
</svg>
